<svg xmlns="http://www.w3.org/2000/svg" viewBox="0 0 44 44"><defs><style>.cls-1{fill:#fff;}.cls-2{fill:none;stroke:#fff;stroke-linecap:round;stroke-linejoin:round;stroke-width:2px;}</style></defs><title>5-权限管理</title><g id="图层_2" data-name="图层 2"><path class="cls-1" d="M22.19,8.24l0,0c2.7,2.21,7.85,6.11,12,7.43a.07.07,0,0,1,0,.06V26.08A22.08,22.08,0,0,1,22.17,39a22.09,22.09,0,0,1-12-12.9V15.86a.22.22,0,0,1,.12-.08c3.79-1.14,9.07-5.2,11.88-7.52l0,0m0-2a2,2,0,0,0-1.31.48c-2.42,2-7.66,6.09-11.19,7.15a2.1,2.1,0,0,0-1.54,2V26.06a2.11,2.11,0,0,0,.09.62,24.11,24.11,0,0,0,13.1,14.1,2,2,0,0,0,.84.18,2.09,2.09,0,0,0,.85-.18,24.12,24.12,0,0,0,13.09-14.1,1.83,1.83,0,0,0,.1-.62V15.75a2.05,2.05,0,0,0-1.43-2c-3.86-1.24-8.94-5.15-11.3-7.08a2.06,2.06,0,0,0-1.3-.47Z"/><path class="cls-1" d="M22.18,18a2.52,2.52,0,1,1-2.51,2.51A2.52,2.52,0,0,1,22.18,18m0-2a4.52,4.52,0,1,0,4.52,4.51A4.51,4.51,0,0,0,22.18,16Z"/><line class="cls-2" x1="22.15" y1="24.41" x2="22.15" y2="32.07"/><line class="cls-2" x1="22.9" y1="29.59" x2="25.58" y2="29.59"/></g></svg>