<svg xmlns="http://www.w3.org/2000/svg" viewBox="0 0 44 44"><defs><style>.cls-1{fill:#fff;}.cls-2,.cls-3{fill:none;stroke:#fff;stroke-linecap:round;stroke-width:2px;}.cls-2{stroke-miterlimit:10;}.cls-3{stroke-linejoin:round;}</style></defs><title>资料认证</title><g id="图层_2" data-name="图层 2"><path class="cls-1" d="M36.76,10.52A2.25,2.25,0,0,1,39,12.76V31.24a2.25,2.25,0,0,1-2.24,2.24H7.24A2.25,2.25,0,0,1,5,31.24V12.76a2.25,2.25,0,0,1,2.24-2.24H36.76m0-2H7.24A4.24,4.24,0,0,0,3,12.76V31.24a4.24,4.24,0,0,0,4.24,4.24H36.76A4.24,4.24,0,0,0,41,31.24V12.76a4.24,4.24,0,0,0-4.24-4.24Z"/><line class="cls-2" x1="9.69" y1="15.35" x2="16.22" y2="15.35"/><line class="cls-2" x1="9.69" y1="21.63" x2="16.22" y2="21.63"/><line class="cls-2" x1="9.69" y1="27.9" x2="16.22" y2="27.9"/><polyline class="cls-3" points="23.57 20.81 28.4 25.3 34.92 18.07"/></g></svg>