<svg xmlns="http://www.w3.org/2000/svg" viewBox="0 0 44 44"><defs><style>.cls-1{fill:#fff;}</style></defs><title>紧急需求 副本 5</title><g id="图层_2" data-name="图层 2"><path class="cls-1" d="M28.87,36c-.64.08-2.28.26-2.34-.09s.41-.33.42-.33a15.17,15.17,0,0,0,7.37-3.43,47.44,47.44,0,0,1-15.27,2.34A47,47,0,0,1,4.22,31.55a14.71,14.71,0,0,0,6.92,8.13A21.21,21.21,0,0,0,20.83,42a22.71,22.71,0,0,0,19-10.48A22.14,22.14,0,0,1,28.87,36Z"/><path class="cls-1" d="M21.16,32.57c5.35-2.35,9.08-8.36,9.08-15.28S27.51,5.62,21.16,2c-2.59,7.56-7.4,18.29-7.4,26.64C13.76,35.09,19.81,33.16,21.16,32.57ZM22.66,6.3a14.6,14.6,0,0,1,4,13c-.94,5.3-4.72,9.64-7.65,9.35C14.32,28.21,21.1,11.31,22.66,6.3Z"/></g></svg>