<svg xmlns="http://www.w3.org/2000/svg" viewBox="0 0 44 44"><defs><style>.cls-1{fill:#fff;}.cls-2{fill:none;stroke:#fff;stroke-linecap:round;stroke-miterlimit:10;stroke-width:2px;}</style></defs><title>5-保险管理</title><g id="图层_2" data-name="图层 2"><path class="cls-1" d="M22.19,8.24l0,0c2.7,2.21,7.85,6.11,12,7.43a.07.07,0,0,1,0,.06V26.08A22.08,22.08,0,0,1,22.17,39a22.09,22.09,0,0,1-12-12.9V15.86a.22.22,0,0,1,.12-.08c3.79-1.14,9.07-5.2,11.88-7.52l0,0m0-2a2,2,0,0,0-1.31.48c-2.42,2-7.66,6.09-11.19,7.15a2.1,2.1,0,0,0-1.54,2V26.06a2.11,2.11,0,0,0,.09.62,24.11,24.11,0,0,0,13.1,14.1,2,2,0,0,0,.84.18,2.09,2.09,0,0,0,.85-.18,24.12,24.12,0,0,0,13.09-14.1,1.83,1.83,0,0,0,.1-.62V15.75a2.05,2.05,0,0,0-1.43-2c-3.86-1.24-8.94-5.15-11.3-7.08a2.06,2.06,0,0,0-1.3-.47Z"/><path class="cls-2" d="M15.18,22.77a29.6,29.6,0,0,0,7,.62,34.07,34.07,0,0,0,7-.62"/><line class="cls-2" x1="22.18" y1="15.3" x2="22.18" y2="33.24"/></g></svg>