<svg xmlns="http://www.w3.org/2000/svg" viewBox="0 0 44 44"><defs><style>.cls-1{fill:#fff;}.cls-2{fill:none;stroke:#fff;stroke-miterlimit:10;stroke-width:2px;}</style></defs><title>中英文</title><g id="图层_2" data-name="图层 2"><path class="cls-1" d="M22,6.05a16,16,0,1,1-16,16,16,16,0,0,1,16-16m0-2a18,18,0,1,0,18,18,18,18,0,0,0-18-18Z"/><path class="cls-1" d="M22,6.05c3.08,0,6.53,6.84,6.53,16s-3.45,16-6.53,16-6.52-6.84-6.52-16,3.44-16,6.52-16m0-2c-4.71,0-8.52,8.06-8.52,18s3.81,18,8.52,18,8.53-8.06,8.53-18-3.82-18-8.53-18Z"/><path class="cls-2" d="M7.3,29.43a59,59,0,0,1,15.47-1.75,59.43,59.43,0,0,1,15.34,1.71"/><path class="cls-2" d="M6.6,15.51a59,59,0,0,0,15.47,1.75,59.93,59.93,0,0,0,15.34-1.71"/></g></svg>