<svg xmlns="http://www.w3.org/2000/svg" viewBox="0 0 44 44"><defs><style>.cls-1{fill:none;stroke:#fff;stroke-linecap:round;stroke-miterlimit:10;stroke-width:2px;}.cls-2{fill:#fff;}</style></defs><title>5-站内消息</title><g id="图层_2" data-name="图层 2"><line class="cls-1" x1="16.17" y1="16.44" x2="27.83" y2="16.44"/><line class="cls-1" x1="16.17" y1="23.39" x2="27.83" y2="23.39"/><path class="cls-2" d="M34.37,10.18c1.43,0,2.63.91,2.63,2V28.69c0,1.07-1.2,2-2.63,2H26.9a2.65,2.65,0,0,0-2,.86L22,34.8l-2.94-3.27a2.65,2.65,0,0,0-2-.86H9.63c-1.43,0-2.63-.91-2.63-2V12.17c0-1.08,1.2-2,2.63-2H34.37m0-2H9.63C7.07,8.18,5,10,5,12.17V28.69c0,2.2,2.07,4,4.63,4H17.1a.64.64,0,0,1,.47.2L21,36.72a1.35,1.35,0,0,0,1.94,0l3.46-3.85a.64.64,0,0,1,.47-.2h7.47c2.56,0,4.63-1.78,4.63-4V12.17c0-2.2-2.07-4-4.63-4Z"/></g></svg>