<!DOCTYPE svg PUBLIC "-//W3C//DTD SVG 20010904//EN" "http://www.w3.org/TR/2001/REC-SVG-20010904/DTD/svg10.dtd">
<svg version="1.0" xmlns="http://www.w3.org/2000/svg" width="56px" height="56px" viewBox="0 0 560 560" preserveAspectRatio="xMidYMid meet">
<g id="layer101" fill="#ffffff" stroke="none">
 <path d="M94 488 c-13 -20 -5 -69 17 -104 28 -46 91 -74 167 -74 74 0 116 16 156 59 24 25 30 40 30 79 l1 47 -182 3 c-136 2 -183 -1 -189 -10z m338 -48 c-3 -37 -62 -86 -111 -95 -69 -11 -121 3 -163 45 -21 21 -38 47 -38 59 0 21 2 21 158 19 l157 -3 -3 -25z"/>
 <path d="M240 293 c-75 -30 -91 -143 -26 -188 27 -20 101 -19 131 1 51 33 54 125 5 169 -19 18 -84 29 -110 18z m87 -55 c13 -12 23 -32 23 -45 0 -30 -42 -73 -70 -73 -11 0 -32 11 -45 25 -66 66 24 157 92 93z"/>
 </g>

</svg>